<?xml version="1.0" encoding="UTF-8" standalone="no"?>
<svg
   xmlns:dc="http://purl.org/dc/elements/1.1/"
   xmlns:cc="http://creativecommons.org/ns#"
   xmlns:rdf="http://www.w3.org/1999/02/22-rdf-syntax-ns#"
   xmlns:svg="http://www.w3.org/2000/svg"
   xmlns="http://www.w3.org/2000/svg"
   id="svg8"
   version="1.1"
   viewBox="0 0 4 16"
   height="16"
   width="4">
  <defs
     id="defs2" />
  <metadata
     id="metadata5">
    <rdf:RDF>
      <cc:Work
         rdf:about="">
        <dc:format>image/svg+xml</dc:format>
        <dc:type
           rdf:resource="http://purl.org/dc/dcmitype/StillImage" />
        <dc:title></dc:title>
      </cc:Work>
    </rdf:RDF>
  </metadata>
  <g
     transform="translate(0,-292.76665)"
     id="layer1" />
  <path
     id="path3805"
     d="M 0,0 H 1.0000006 L 1,5 H 1.9999992 L 2,4 H 1 V 0 H 4 V 4 H 3 V 2 H 2 V 3 H 3 V 5 H 3.9999998 L 4,7 H 2.9999999 V 6 h -1 v 1 h -1 V 6 H 0 v 1 h 0.9999999 v 1 h 1 V 7 h 1 V 8 H 4 V 9 H 2.9999999 V 8 h -1 v 1 h -1 V 8 H 0 v 1 h 0.9999999 v 1 h 1 V 9 h 0.9999999 v 1 h 0.9999998 l 10e-8,1 H 2.9999999 l -1e-7,-1 H 1.9999999 L 2,11 H 1 l -10e-8,-1 H 0 v 2 h 0.9999999 v 1.066667 H 0 V 12 h 1.9999999 v 1.066667 H 2.9999998 V 12 H 1.9999999 0 l 1e-7,2 H 2 4.0000001 v 1 H 2.9999999 V 14 H 2 v 1 H 1 V 14 H 1e-7 L 0,3 H 1 V 2 H 0 Z"
     style="fill:#000000;stroke-width:3.9034791" />
</svg>
