<?xml version="1.0" encoding="UTF-8" standalone="no"?>
<svg
   xmlns:dc="http://purl.org/dc/elements/1.1/"
   xmlns:cc="http://creativecommons.org/ns#"
   xmlns:rdf="http://www.w3.org/1999/02/22-rdf-syntax-ns#"
   xmlns:svg="http://www.w3.org/2000/svg"
   xmlns="http://www.w3.org/2000/svg"
   id="svg392"
   version="1.1"
   viewBox="0 0 13.890625 16.933333"
   height="64"
   width="52.5">
  <defs
     id="defs386" />
  <metadata
     id="metadata389">
    <rdf:RDF>
      <cc:Work
         rdf:about="">
        <dc:format>image/svg+xml</dc:format>
        <dc:type
           rdf:resource="http://purl.org/dc/dcmitype/StillImage" />
        <dc:title></dc:title>
      </cc:Work>
    </rdf:RDF>
  </metadata>
  <g
     transform="translate(0,-280.06667)"
     id="layer1">
    <path
       id="path396"
       d="M 0,280.06667 V 297 h 11.90625 v -11.24479 l 1.719791,-1.5875 0.264584,-0.26458 v -3.83646 z m 6.2140908,1.59784 v 0.0186 c 9.147e-4,-0.003 -2.857e-4,-0.0181 0.00103,-0.0181 4.4903662,2.9e-4 2.9018792,6.27559 -0.00103,6.27559 v -0.001 c -2.9192158,0 -4.4911027,-6.27506 0,-6.27506 z m 7.4119502,2.90008 -1.455208,1.19062 v 4.10104 l 1.058333,-1.19062 0.396875,-0.39688 z m -9.6572911,0.13746 c -0.6736649,1.7311 2.2453828,2.07025 1.7962727,0.55552 z m 4.4911986,0.001 -1.7967894,0.55397 c -0.4491111,1.51473 2.4704559,1.17713 1.7967894,-0.55397 z m -2.2458577,3.47266 v 5.1e-4 l 2.2458577,0.2248 c 1.1227745,0.22456 2.2453415,1.27052 2.2453415,3.43441 v 1.73116 l -8.981881,-0.001 v -1.73065 c 0,-2.16391 1.1225649,-3.20933 2.2453409,-3.43389 z m 7.0150752,0.88676 -1.058333,1.19063 v 3.57187 l 0.661458,-0.79375 0.396875,-0.39687 z m -0.396875,4.36563 -0.661458,0.79375 v 2.51354 l 0.661458,-0.66146 z"
       style="fill:#000000;stroke-width:0.37750515" />
    <g
       id="layer1-2"
       transform="translate(-13.030729,1.5872842)" />
  </g>
</svg>
