<?xml version="1.0" encoding="UTF-8" standalone="no"?>
<svg
   xmlns:dc="http://purl.org/dc/elements/1.1/"
   xmlns:cc="http://creativecommons.org/ns#"
   xmlns:rdf="http://www.w3.org/1999/02/22-rdf-syntax-ns#"
   xmlns:svg="http://www.w3.org/2000/svg"
   xmlns="http://www.w3.org/2000/svg"
   id="svg8"
   version="1.1"
   viewBox="0 0 9.1281248 11.509375"
   height="43.5"
   width="34.5">
  <defs
     id="defs2" />
  <metadata
     id="metadata5">
    <rdf:RDF>
      <cc:Work
         rdf:about="">
        <dc:format>image/svg+xml</dc:format>
        <dc:type
           rdf:resource="http://purl.org/dc/dcmitype/StillImage" />
        <dc:title></dc:title>
      </cc:Work>
    </rdf:RDF>
  </metadata>
  <g
     transform="translate(0,-285.49061)"
     id="layer1">
    <path
       id="path12"
       d="m 1.8520839,289.06248 1.8520829,-1.98434 H 8.466667 v -0.26459 H 3.3072918 l -1.8520834,1.99028 -2e-7,7.53472 H 0.92604176 v -7.67291 L 3.042706,286.28439 H 7.805209 V 286.0198 H 2.6458335 l -2.11666684,2.38125 v 7.27605 H 4.0000006e-8 v -7.40834 L 2.3812501,285.49064 H 7.805209 v 0.79375 h 0.661456 v 0.79375 l 0.661459,-3e-5 v 9.92187 H 1.8520839 v -1.98437 h 0.6614584 l -1e-7,0.66145 h 3.9687501 l 1e-7,-0.66145 H 1.8520839 v -1.32292 h 0.6614583 v 0.66146 H 8.466667 v -0.66146 H 1.8520839 v -1.32292 h 0.6614583 l 1e-7,0.66146 H 8.466667 v -0.66146 l -6.6145831,0.0122 v -1.33508 h 0.6614584 v 0.66145 H 8.466667 v -0.66145 H 1.8520839 v -1.32292 h 0.6614584 l -1e-7,0.66146 H 8.466667 v -0.66146 H 1.8520839 Z"
       style="fill:#000000" />
  </g>
</svg>
