<?xml version="1.0" encoding="UTF-8" standalone="no"?>
<svg
   xmlns:dc="http://purl.org/dc/elements/1.1/"
   xmlns:cc="http://creativecommons.org/ns#"
   xmlns:rdf="http://www.w3.org/1999/02/22-rdf-syntax-ns#"
   xmlns:svg="http://www.w3.org/2000/svg"
   xmlns="http://www.w3.org/2000/svg"
   width="40"
   height="30"
   viewBox="0 0 10.583333 7.9374997"
   version="1.1"
   id="svg8">
  <defs
     id="defs2" />
  <metadata
     id="metadata5">
    <rdf:RDF>
      <cc:Work
         rdf:about="">
        <dc:format>image/svg+xml</dc:format>
        <dc:type
           rdf:resource="http://purl.org/dc/dcmitype/StillImage" />
        <dc:title></dc:title>
      </cc:Work>
    </rdf:RDF>
  </metadata>
  <g
     id="layer1"
     transform="translate(0,-289.06248)">
    <g
       transform="matrix(1.0436201,0,0,0.99857462,2.5881275,0.41900559)"
       id="g215">
      <path
         id="path33"
         d="M -2.0000002e-7,296.99998 0,295.98013 c 0,-1.27482 0.6614583,-1.89057 1.3229166,-2.02286 l 1.322916,-0.13274 1e-7,-0.13906 c -1.7197915,0 -2.64583329999999,-3.69695 2e-7,-3.69695 l 5e-7,2.04449 -0.2645834,0.0722 -1.0583333,-0.32711 c -0.39687509,1.01984 1.3229166,1.21948 1.0583333,0.32711 l 0.2645834,-0.0722 v 4.8e-4 l 0.2645832,0.0717 c -0.2645834,0.89237 1.4552085,0.69321 1.0583335,-0.32663 l -1.0583335,0.32663 -0.2645832,-0.0717 1e-7,-1.91704 c 0,0 -0.00885,-0.12766 4.342e-4,-0.12766 2.6453992,1.7e-4 1.7097522,3.69712 -4.342e-4,3.69712 l -3e-7,0.13907 1.3229166,0.13229 c 0.6614583,0.13229 1.3229171,0.74853 1.3229171,2.02334 l -1e-7,1.01985 z"
         style="fill:#000000;stroke-width:0.9816497" />
      <path
         style="fill:#000000;stroke-width:0.9816497"
         d="m 5.0043455,289.05164 c -0.8849608,0 -1.3688361,0.4143 -1.5585612,0.9648 1.1063925,0.32609 1.1844239,1.62573 0.9198406,2.55177 0.1459169,0.0597 0.4763051,0.18035 0.6387206,0.18035 v 5.1e-4 c 1.7101759,0 2.6459159,-3.69676 5.168e-4,-3.69693 -6.75e-4,0 -2.44e-5,0.008 -5.168e-4,0.009 z m 1.3229167,1.79008 c 0.396875,1.01984 -1.3229175,1.21896 -1.0583333,0.32659 z m -1.3229167,2.04587 -1.0355956,0.14364 c -0.3034247,0.47149 -0.4630208,0.59531 -0.8598958,0.72761 l 1.0583333,0.13228 c 0.6679808,0.13359 1.3112499,0.90709 1.3229167,2.18282 l 2.2262205,-0.0104 v -1.02009 c 0,-1.27481 -0.6614586,-1.89085 -1.3229166,-2.02314 L 5.0043455,292.8881 Z"
         id="path33-5" />
      <path
         style="fill:#000000;stroke-width:0.9816497"
         d="m 0.28732147,289.05163 c 0.88496003,0 1.36883603,0.4143 1.55856103,0.9648 -1.10639303,0.32609 -1.18442403,1.62573 -0.91984103,2.55177 -0.145917,0.0597 -0.476305,0.18035 -0.63872,0.18035 v 5e-4 c -1.71017657,0 -2.64591657,-3.69676 -5.16e-4,-3.69693 6.74e-4,0 2.4e-5,0.008 5.16e-4,0.009 z m -1.32291657,1.79008 c -0.396875,1.01984 1.32291657,1.21896 1.05833257,0.32659 z m 1.32291657,2.04587 1.03559503,0.14364 c 0.303425,0.47149 0.463021,0.59531 0.859896,0.72761 l -1.058333,0.13228 c -0.66798103,0.13359 -1.31125103,0.90709 -1.32291703,2.18282 l -2.22622057,-0.0104 v -1.02009 c 0,-1.27481 0.661459,-1.89085 1.322917,-2.02314 l 1.38906257,-0.13221 z"
         id="path33-5-5" />
    </g>
  </g>
</svg>
