<?xml version="1.0" encoding="UTF-8" standalone="no"?>
<svg
   xmlns:dc="http://purl.org/dc/elements/1.1/"
   xmlns:cc="http://creativecommons.org/ns#"
   xmlns:rdf="http://www.w3.org/1999/02/22-rdf-syntax-ns#"
   xmlns:svg="http://www.w3.org/2000/svg"
   xmlns="http://www.w3.org/2000/svg"
   id="svg242"
   version="1.1"
   viewBox="0 0 10.583333 5.0270835"
   height="19"
   width="40">
  <defs
     id="defs236" />
  <metadata
     id="metadata239">
    <rdf:RDF>
      <cc:Work
         rdf:about="">
        <dc:format>image/svg+xml</dc:format>
        <dc:type
           rdf:resource="http://purl.org/dc/dcmitype/StillImage" />
        <dc:title></dc:title>
      </cc:Work>
    </rdf:RDF>
  </metadata>
  <g
     transform="translate(0,-291.9729)"
     id="layer1">
    <path
       id="path246"
       d="m 1.332716,291.97291 0.3135803,-1e-5 c 0.3135802,0 0.3135802,0.33513 0,0.33513 h 0.6271604 c -0.3135802,0 -0.3135802,-0.33513 -0.00392,-0.33513 h 8.3137923 l -0.15679,0.33513 H 9.9561732 l -2.2891364,2.17834 c -0.062716,0.067 -0.2508642,0.067 -0.3135803,0 L 5.252469,292.30803 H 4.6253085 c -0.3135803,0 -0.3135803,0.33513 0,0.33513 H 5.252469 l 2.1009875,2.17834 c 0.062716,0.067 0.2508643,0.067 0.3135803,0 l 2.9162962,-2.8486 v 0 5.02694 h -0.06272 l -1.9755558,-2.51347 c -0.1567896,-0.16757 -0.3135801,0 -0.1567896,0.16756 l 1.5992599,2.01078 h 0.3762965 l 0.219504,0.33513 -8.153088,1.4e-4 -2.1950548,-1.4e-4 c -0.31358027,0 -0.31358027,-0.33513 0,-0.33513 h 0.47037039 c 0.31358021,0 0.31358021,0.33513 0,0.33513 H 1.332716 c -0.3135802,0 -0.3135802,-0.33513 0,-0.33513 l 0.3135792,1.4e-4 c 0.3135803,0 0.3135803,0.33513 1e-7,0.33513 l 0.7839477,-1.4e-4 c -0.3135802,0 -0.3135802,-0.33513 0,-0.33513 l 2.9e-6,1.4e-4 c 0.3135802,0 0.3135802,-0.33513 0,-0.33513 h 0.6271604 c -0.3135802,0 -0.3135802,0.33513 0,0.33513 h 0.3135803 c 0.3135802,0 0.3135802,-0.33513 0,-0.33513 H 3.998147 c -0.3135802,0 -0.3135802,0.33513 1e-7,0.33513 l -2.8e-6,-1.4e-4 c 0.3135802,0 0.3135802,-0.33513 0,-0.33513 l 0.6271592,1.4e-4 c -0.3135802,0 -0.3135802,0.33513 0,0.33513 l 0.1148858,-0.10743 1.9233869,-1.90349 c 0.1567901,-0.16756 0,-0.33513 -0.1567901,-0.16756 l -1.8814826,1.84335 -4.23332817,-1.4e-4 c -0.31358026,0 -0.31358026,-0.33513 0,-0.33513 l 1.10035257,-1.3e-4 c 0.3107526,1.3e-4 0.3107526,0.33526 -0.00283,0.33526 h 0.6271605 c -0.3135802,0 -0.3135802,-0.33513 -0.00625,-0.33526 l 0.7901988,1.4e-4 c 0.3135803,0 0.3135803,-0.33513 0,-0.33513 l 0.6271605,-1e-5 c -0.3135802,0 -0.3135802,0.33513 0,0.33513 h 0.4703704 c 0.3135801,0 0.3135801,-0.33513 0,-0.33513 H 0.54876546 c -0.31358017,0 -0.31358017,-0.33513 0,-0.33513 H 1.6462963 c 0.3135802,0 0.3135802,0.33513 0,0.33513 h 0.6271604 c -0.3135802,0 -0.3135802,-0.33513 0,-0.33513 h 1.0975308 c 0.3135803,0 0.3135803,-0.33513 0,-0.33513 h 0.6271604 c -0.3135801,0 -0.3135801,0.33513 0,0.33513 0.3135803,0 0.3135803,-0.33513 0,-0.33513 H 0.70555559 c -0.31358026,0 -0.31358026,-0.33513 0,-0.33513 H 1.4895062 c 0.3135803,0 0.3135803,0.33513 0,0.33513 h 0.6271605 c -0.3135802,0 -0.3135802,-0.33513 0,-0.33513 h 0.6271604 c 0.3135803,0 0.3135803,0.33513 0,0.33513 h 0.6271604 c -0.3135801,0 -0.3135801,-0.33513 0,-0.33513 H 3.998148 c 0.3135803,10e-6 0.3135803,-0.33513 0,-0.33513 H 0.86234572 c -0.31358026,0 -0.31358026,-0.33513 0,-0.33513 H 1.9598765 c 0.3135803,0 0.3135803,0.33513 0,0.33513 H 2.587037 c -0.3135802,0 -0.3135802,-0.33513 -10e-8,-0.33513 H 2.743827 c 0.3135803,0 0.3135803,0.33513 0,0.33513 h 0.6271604 c -0.3135801,0 -0.3135801,-0.33513 0,-0.33513 h 10e-8 c 0.3135803,0 0.3135803,-0.33513 0,-0.33513 h 0.6271604 c -0.3135801,0 -0.3135801,0.33513 0,0.33513 0.3135803,0 0.3722545,-0.32039 10e-8,-0.33513 H 1.0191358 c -0.31358002,0 -0.31358002,-0.33513 0,-0.33513 H 1.270872 c 0.3127084,0 0.3127084,0.33513 -8.719e-4,0.33513 h 0.6271605 c -0.3135802,0 -0.3135802,-0.33513 0,-0.33513 h 1.1602467 c 0.3135802,1e-5 0.3135802,-0.33512 1e-7,-0.33512 h 0.6271604 c -0.3135803,0 -0.3135803,0.33513 0,0.33513 H 3.998148 c 0.3135802,0 0.3135802,-0.33513 0,-0.33513 H 1.1759259 c -0.31358028,-1.3e-4 -0.31358028,-0.33526 0,-0.33513 h 0.6585184 c 0.3135802,0 0.3135802,0.33513 0,0.33513 h 0.6271605 c -0.3135802,0 -0.3135802,-0.33513 0,-0.33513 l -10e-8,1.3e-4 c 0.2822224,-1.3e-4 0.2822225,-0.33526 -0.031358,-0.33513 l 0.6271605,-1.3e-4 c -0.3135802,0 -0.3135802,0.33512 0,0.33512 l 3e-7,1e-5 c 0.3135803,0 0.3135803,-0.33512 0,-0.33512 h 0.6271604 c -0.3135803,0 -0.3135803,0.33512 0,0.33512 H 3.998148 c 0.3135803,0 0.3135803,-0.33512 0,-0.33512 l -2.6654319,1.3e-4 c -0.3135803,-1.3e-4 -0.3135803,-0.33526 -1e-7,-0.33526 z"
       style="fill:#000000;stroke-width:0.98018491" />
  </g>
</svg>
