<?xml version="1.0" encoding="UTF-8" standalone="no"?>
<svg
   xmlns:dc="http://purl.org/dc/elements/1.1/"
   xmlns:cc="http://creativecommons.org/ns#"
   xmlns:rdf="http://www.w3.org/1999/02/22-rdf-syntax-ns#"
   xmlns:svg="http://www.w3.org/2000/svg"
   xmlns="http://www.w3.org/2000/svg"
   id="svg8"
   version="1.1"
   viewBox="0 0 7.1437494 8.4666659"
   height="32"
   width="27">
  <defs
     id="defs2" />
  <metadata
     id="metadata5">
    <rdf:RDF>
      <cc:Work
         rdf:about="">
        <dc:format>image/svg+xml</dc:format>
        <dc:type
           rdf:resource="http://purl.org/dc/dcmitype/StillImage" />
        <dc:title></dc:title>
      </cc:Work>
    </rdf:RDF>
  </metadata>
  <g
     transform="translate(0,-288.53334)"
     id="layer1">
    <g
       transform="matrix(2.4,0,0,2.1422588,-6.35,-334.32675)"
       id="g42">
      <path
         style="fill:#000000;stroke-width:3.77952766"
         d="M 15.628906,8.375 C 15.316406,8.375 15,8.6250016 15,9.5 c -3.750001,2.3e-6 -3.75,6.249994 -3.75,8.75 -0.750001,0.750001 -1,1.25 -1.25,2.5 H 21.25 C 21,19.5 20.749998,19.000001 20,18.25 c 0,-2.500006 -2e-6,-8.7499977 -3.75,-8.75 0,-0.8749984 -0.308594,-1.125 -0.621094,-1.125 z m 0.0059,0.125 c 0.206028,5e-7 0.373047,0.1670191 0.373046,0.3730469 0,0.2060278 -0.167018,0.3730464 -0.373046,0.3730469 -0.206028,0 -0.373047,-0.1670187 -0.373047,-0.3730469 0,-0.2060282 0.167019,-0.373047 0.373047,-0.3730469 z m 2.365193,2.250002 c 0.984373,1.58008 1.250039,2.5 1.250039,5 -0.25004,-1.25 -0.25004,-2.5 -1.500039,-4.25 -1.017129,-1.374921 -0.25,-1.5 0.25,-0.75 z m 1.546916,7.800779 c 0.170463,0.0098 0.365264,0.09801 0.476563,0.294922 0.296825,0.525317 0.593559,1.04985 0.589843,1.658203 -0.340996,-0.474784 -0.592076,-1.049907 -1.189453,-1.492187 -0.373361,-0.276449 -0.161058,-0.477288 0.123047,-0.460938 z"
         transform="matrix(0.26458333,0,0,0.26458333,0,288.53334)"
         id="path12" />
      <path
         style="fill:#000000"
         d="m 3.6380205,294.15574 h 0.9921872 c 2e-7,0.7276 -0.9921872,0.7276 -0.9921872,0 z"
         id="path38" />
    </g>
  </g>
</svg>
