<?xml version="1.0" encoding="UTF-8" standalone="no"?>
<svg
   xmlns:dc="http://purl.org/dc/elements/1.1/"
   xmlns:cc="http://creativecommons.org/ns#"
   xmlns:rdf="http://www.w3.org/1999/02/22-rdf-syntax-ns#"
   xmlns:svg="http://www.w3.org/2000/svg"
   xmlns="http://www.w3.org/2000/svg"
   id="svg8"
   version="1.1"
   viewBox="0 0 11.1125 8.4666669"
   height="32"
   width="42">
  <defs
     id="defs2" />
  <metadata
     id="metadata5">
    <rdf:RDF>
      <cc:Work
         rdf:about="">
        <dc:format>image/svg+xml</dc:format>
        <dc:type
           rdf:resource="http://purl.org/dc/dcmitype/StillImage" />
        <dc:title></dc:title>
      </cc:Work>
    </rdf:RDF>
  </metadata>
  <g
     transform="translate(0,-288.53332)"
     id="layer1">
    <g
       transform="matrix(1.0041053,0,0,0.99408558,1.7979391,1.1804697)"
       id="g244">
      <path
         style="stroke-width:0.99999994"
         d="M 13,0 V 2.203125 A 9.9999991,9.9999991 0 0 0 9.5117188,3.65625 L 7.4882812,1.6328125 4.6601562,4.4628906 6.6796875,6.4804688 A 9.9999991,9.9999991 0 0 0 5.2128906,10 H 4.9199219 l 0.7324219,1.820312 4.6914062,2.001954 A 4.999999,4.999999 0 0 1 10,12 a 4.999999,4.999999 0 0 1 5,-5 4.999999,4.999999 0 0 1 5,5 4.999999,4.999999 0 0 1 -0.322266,1.744141 L 26.302734,10 H 24.796875 A 9.9999991,9.9999991 0 0 0 23.572266,6.8808594 L 25.863281,4.5898438 23.035156,1.7617188 20.869141,3.9277344 A 9.9999991,9.9999991 0 0 0 17,2.2128906 V 0 Z"
         transform="matrix(0.26458333,0,0,0.26458333,0,289.06249)"
         id="path12" />
      <path
         style="stroke-width:0.78846151"
         d="m -2.7441406,6.5195312 -0.9277344,2.1757813 1.0351562,-0.4160156 2.90039068,1.2363281 0.41992187,4.037109 -3.20507815,2.490235 -2.9003906,-1.238281 -0.4160156,-1.033204 -0.9296875,2.175782 2.1640625,1.779296 3.63867185,0.695313 3.10351565,-1.248047 4.7050781,2.007813 0.4550781,-0.257813 3.1386719,-0.865234 0.333984,-1.095703 0.652344,-0.369141 0.775391,1.375 2.523437,-1.425781 L 4.3046875,12.097656 3.0585938,8.9941406 0.0390625,6.8496094 Z m 22.0390626,11.9746098 -5.152344,2.912109 0.664063,1.173828 9.08789,3.878906 1.248047,3.103516 3.316406,2.271484 2.484375,0.203125 0.927735,-2.175781 -1.033203,0.416016 -2.902344,-1.236328 -0.419922,-4.03711 3.205078,-2.490234 2.902344,1.238281 0.414062,1.033203 0.929688,-2.175781 -1.867188,-1.652344 -3.935547,-0.822265 -3.103515,1.246093 z"
         transform="matrix(0.26458333,0,0,0.26458333,0,289.06249)"
         id="rect76" />
      <path
         style="stroke-width:0.24715266"
         d="m -1.6032227,296.3065 0.71930344,1.27303 3.45530426,-1.95241 0.6246759,-0.59289 0.2846144,0.0791 0.1818588,-0.10272 -0.2055178,-0.36372 4.5464538,-2.56894 0.1027634,0.18187 0.1818587,-0.10272 0.9883863,-0.79842 -0.3082706,-0.54558 -1.1939051,0.4347 -0.1818594,0.10272 0.1027571,0.18186 -4.5464538,2.56894 -0.2055144,-0.36373 -0.1725223,0.0975 -0.088438,0.28989 -0.8301887,0.22918 z"
         id="rect118" />
      <path
         style="stroke-width:0.24715266"
         d="m -1.6032228,296.3065 0.71930349,1.27303 3.45530421,-1.95241 0.624676,-0.59289 0.2846144,0.0791 0.1818587,-0.10272 -0.2055177,-0.36372 4.5464539,-2.56894 0.1027634,0.18187 0.1818587,-0.10272 0.988386,-0.79842 -0.30827,-0.54558 -1.1939056,0.4347 -0.1818593,0.10272 0.1027571,0.18186 -4.5464537,2.56894 -0.2055146,-0.36373 -0.1725223,0.0975 -0.088438,0.28989 -0.8301887,0.22918 z"
         id="rect118-9" />
    </g>
  </g>
</svg>
