<?xml version="1.0" encoding="UTF-8" standalone="no"?>
<svg
   xmlns:dc="http://purl.org/dc/elements/1.1/"
   xmlns:cc="http://creativecommons.org/ns#"
   xmlns:rdf="http://www.w3.org/1999/02/22-rdf-syntax-ns#"
   xmlns:svg="http://www.w3.org/2000/svg"
   xmlns="http://www.w3.org/2000/svg"
   id="svg8"
   version="1.1"
   viewBox="0 0 5.2916666 7.0114582"
   height="26.5"
   width="20">
  <defs
     id="defs2" />
  <metadata
     id="metadata5">
    <rdf:RDF>
      <cc:Work
         rdf:about="">
        <dc:format>image/svg+xml</dc:format>
        <dc:type
           rdf:resource="http://purl.org/dc/dcmitype/StillImage" />
        <dc:title></dc:title>
      </cc:Work>
    </rdf:RDF>
  </metadata>
  <g
     transform="translate(0,-289.98852)"
     id="layer1">
    <path
       id="path33"
       d="M -2.0000002e-7,296.99998 0,295.98013 c 0,-1.27482 0.6614586,-1.91222 1.3229168,-1.91222 h 0.2645833 l 0.6614583,2.16718 0.2645831,-1.40229 -0.2645834,-0.38245 0.2645831,-0.38244 h 0.1322914 l 1e-7,-0.38244 c -1.7197915,0 -2.64583329999999,-3.69695 2e-7,-3.69695 l 5e-7,1.91222 H 2.38125 l -1.0583333,-0.25496 c -0.3968751,1.01984 1.3229166,1.14733 1.0583333,0.25496 h 0.2645834 l -6e-7,1.14732 H 2.2489584 c 0,0.25497 0.7937501,0.25497 0.7937501,0 -0.1322917,0 0.017247,-0.008 -0.3968751,0 v -1.14732 h 0.2645833 c -0.2645834,0.89237 1.4552084,0.76488 1.0583334,-0.25496 l -1.0583334,0.25496 H 2.6458334 l 1e-7,-1.78477 c 0,0 -0.00885,-0.12766 4.342e-4,-0.12766 2.6453992,1.7e-4 1.7097522,3.69712 -4.342e-4,3.69712 l -3e-7,0.38245 h 0.1322919 l 0.2645834,0.38243 -0.2645834,0.38245 0.2645834,1.4023 0.6614583,-2.16715 0.2645834,-3e-5 c 0.6614585,0 1.3229167,0.63744 1.3229167,1.91225 l -1e-7,1.01985 z"
       style="fill:#000000;stroke-width:0.9816497" />
  </g>
</svg>
