<?xml version="1.0" encoding="UTF-8" standalone="no"?>
<svg
   xmlns:dc="http://purl.org/dc/elements/1.1/"
   xmlns:cc="http://creativecommons.org/ns#"
   xmlns:rdf="http://www.w3.org/1999/02/22-rdf-syntax-ns#"
   xmlns:svg="http://www.w3.org/2000/svg"
   xmlns="http://www.w3.org/2000/svg"
   width="20"
   height="26.5"
   viewBox="0 0 5.2916666 7.0114582"
   version="1.1"
   id="svg8">
  <defs
     id="defs2" />
  <metadata
     id="metadata5">
    <rdf:RDF>
      <cc:Work
         rdf:about="">
        <dc:format>image/svg+xml</dc:format>
        <dc:type
           rdf:resource="http://purl.org/dc/dcmitype/StillImage" />
        <dc:title></dc:title>
      </cc:Work>
    </rdf:RDF>
  </metadata>
  <g
     id="layer1"
     transform="translate(0,-289.98852)">
    <path
       style="fill:#000000;stroke-width:0.9816497"
       d="M -2.0000002e-7,296.99998 0,295.98013 c 0,-1.27482 0.6614583,-1.89057 1.3229166,-2.02286 l 1.322916,-0.13274 1e-7,-0.13906 c -1.7197915,0 -2.64583329999999,-3.69695 2e-7,-3.69695 l 5e-7,2.04449 -0.2645834,0.0722 -1.0583333,-0.32711 c -0.39687509,1.01984 1.3229166,1.21948 1.0583333,0.32711 l 0.2645834,-0.0722 v 4.8e-4 l 0.2645832,0.0717 c -0.2645834,0.89237 1.4552085,0.69321 1.0583335,-0.32663 l -1.0583335,0.32663 -0.2645832,-0.0717 1e-7,-1.91704 c 0,0 -0.00885,-0.12766 4.342e-4,-0.12766 2.6453992,1.7e-4 1.7097522,3.69712 -4.342e-4,3.69712 l -3e-7,0.13907 1.3229166,0.13229 c 0.6614583,0.13229 1.3229171,0.74853 1.3229171,2.02334 l -1e-7,1.01985 z"
       id="path33" />
  </g>
</svg>
