<?xml version="1.0" encoding="utf-8"?>
<!-- Svg Vector Icons : http://www.onlinewebfonts.com/icon -->
<!DOCTYPE svg PUBLIC "-//W3C//DTD SVG 1.1//EN" "http://www.w3.org/Graphics/SVG/1.1/DTD/svg11.dtd">
<svg version="1.1" xmlns="http://www.w3.org/2000/svg" xmlns:xlink="http://www.w3.org/1999/xlink" x="0px" y="0px" viewBox="0 0 1000 1000" enable-background="new 0 0 1000 1000" xml:space="preserve">
<metadata> Svg Vector Icons : http://www.onlinewebfonts.com/icon </metadata>
<g><g><g><path d="M467.3,741.8c8,8.1,20.6,12.5,33.1,12.5c11.2,0,25.1-4.4,33.1-12.5L782,491.6c12.2-12.3,15.8-30.7,9.1-46.6c-6.7-15.9-22.3-26.3-39.6-26.3l-81.1,0.7l1.2-355C671.5,29.3,643,0.8,607.8,0.8H393.1c-35.1,0-63.7,28.5-63.8,63.6l1.2,354.9l-81.1-0.6c-17.3,0-32.9,10.3-39.6,26.3c-6.7,15.9-3.1,34.4,9.1,46.6L467.3,741.8z"/><path d="M925.8,423c-35.4,0-64.2,28.7-64.2,64v357.2c0,14.8-11.4,26.5-26.2,26.5H163.6c-14.8,0-27-11.7-27-26.5V487c0-35.3-27.9-64-63.3-64C38,423,10,451.6,10,487v357.2c0,85.4,68.2,155,153.6,155h671.7c85.4,0,154.7-69.6,154.7-155V487C990,451.6,961.1,423,925.8,423z"/></g></g><g></g><g></g><g></g><g></g><g></g><g></g><g></g><g></g><g></g><g></g><g></g><g></g><g></g><g></g><g></g></g>
</svg>